<?xml version="1.0" encoding="utf-8"?>
<!-- Generator: Adobe Illustrator 22.1.0, SVG Export Plug-In . SVG Version: 6.00 Build 0)  -->
<svg version="1.1" xmlns="http://www.w3.org/2000/svg" xmlns:xlink="http://www.w3.org/1999/xlink" x="0px" y="0px"
	 viewBox="0 0 1190.5 386.1" style="enable-background:new 0 0 1190.5 386.1;" xml:space="preserve">
<style type="text/css">
	.st0{fill:#CC092F;}
</style>
<g id="Layer_1">
</g>
<g id="PROPORÇ_x2DC_AO_E_REGRAS">
	<path class="st0" d="M411.3,203c-8,0-15.9,1.8-20.8,4.2v-49.6c-7.8,2.9-16.1,6.9-23,12.5c-3.6,2.9-4.7,5.8-4.7,10.1v122.4
		c7.4,3.1,22.3,5.8,36.6,5.8c36.2,0,57-22.1,57-54.1C456.5,222.7,441.7,203,411.3,203z M401.1,285.9c-2.9,0-7.4,0-10.5-1.1v-55.6
		c3.8-2,9.2-3.1,16.1-3.1c13.9,0,21.2,9.6,21.2,27.7C427.9,272.8,419.2,285.9,401.1,285.9z M527.1,203.9c-13.2,0-20.8,5.1-27.9,14.3
		c-0.7-4.7-1.6-8.5-3.1-13.2c-2.7-0.9-7.4-1.1-11.4-1.1c-3.8,0-8.7,0.4-11.2,1.1v101.2c3.4,0.9,8.9,1.1,13.9,1.1
		c4.7,0,10.9-0.4,13.9-1.1v-49.4c0-19.7,10.3-30.2,24.1-30.2c2.5,0,6.7,0,9.2,0.4c1.6-6.5,1.8-15.9,0.4-22.3
		C533.3,204.4,529.3,203.9,527.1,203.9z M177.2,253.5v51.6c0,1.3,1,2.3,2.3,2.3h14.3v-66.2l-14.3,8.2
		C178.1,250.3,177.2,251.6,177.2,253.5z M191.7,126.8c-14,0-29.4,1.3-44.5,3.9c15.3-19.7,39.7-32.4,66.8-32.4c20,0,40,7.5,53.5,18.8
		c2.4,2,4.3,2.2,6.2,0.4c1.9-1.8,1.7-3.7-0.4-6.1c-17.6-20.4-43.4-34.2-73.9-33.7c-39.9,0.7-73.7,26-86.6,60.9
		c-11.8,3.7-22.6,8.1-32.2,13.4c-2.6,1.5-3.6,3.3-2.6,5.5c0.9,2,2.8,2.8,5.4,2c8.2-2.4,16.7-4.4,25.5-6.3c-0.9,4.6-1.5,9.4-1.5,14.4
		c-0.7,32.2,16.5,62.8,43,79.5c2.6,1.7,4.9,1.7,6.4-0.4c1.5-2,1.3-3.9-0.9-5.9c-16.8-15.1-26.2-37.6-26.2-59.8
		c0-11.2,2.2-22.1,6.5-31.9c8.8-0.7,18.3-1.3,28.8-1.3c68.1,0,125.6,22.5,125.6,51.9c0,14.9-18.9,29.8-41.4,39.8
		c-5.4,2.4-6,4.1-5.2,6.4c0.7,2.2,3.2,2.9,6,2c39.3-12.9,69.1-34.1,69.1-59.7C319,153.6,262.8,126.8,191.7,126.8z M219.2,226.6
		l-19,10.9v69.8l20.4,0c2,0,3.6-1.6,3.6-3.6v-74.6C224.2,226.4,221.5,225.3,219.2,226.6z M1064.3,202.6c-31.1,0-48.5,21.2-48.5,53.2
		c0,32.4,18.3,52.7,48.5,52.7c31.3,0,48.7-20.8,48.7-52.7C1113,223.6,1095.5,202.6,1064.3,202.6z M1064.3,286.2
		c-15.4,0-20.1-12.5-20.1-30.4c0-17.4,4.7-30.8,20.1-30.8c15.9,0,20.3,13,20.3,30.8C1084.6,274.5,1079.4,286.2,1064.3,286.2z
		 M793.9,202.6c-29.9,0-48.3,20.1-48.3,53.6c0,33.5,19.4,52.3,52.7,52.3c11.4,0,23.7-2,31.5-5.8c1.6-6.5,1.6-15,0-21.5
		c-10.3,2.9-19,4.7-28.6,4.7c-15.4,0-26.1-5.8-28.4-22.1h63c0.9-2.5,1.1-10.7,1.1-14.1C837,219.6,820,202.6,793.9,202.6z
		 M772.9,243.5c2-12.3,9.4-19.7,20.6-19.7c12.5,0,17.4,8.5,17.9,19.7H772.9z M986.7,285.7c-13.9,0-23-10.9-23-30.2
		c0-18.3,7.4-30.2,23.2-30.2c6.7,0,11.4,1.1,17.7,3.6c1.8-6.3,5.1-13.4,9.8-19.4c-8.7-4.5-17.2-6.9-31.1-6.9
		c-30.6,0-48.3,21.7-48.3,53c0,32.4,18.1,53,49.4,53c11.4,0,21.9-2,30.4-6.7c-3.8-4.9-8-11.6-10.5-19.4
		C996.5,285.5,993.2,285.7,986.7,285.7z M578.3,202.6c-10.9-0.2-20.6,1.1-29.9,3.4c-1.8,6.3-1.6,15.4,0,21.9
		c11.6-2.7,18.1-2.9,25.5-2.9c14.3,0,21.2,5.8,21.2,17.7v1.1c-4.2-0.4-9.4-0.9-13-0.9c-23.7,0-44,8.5-44,31.3
		c0,25.7,18.3,34.4,44.9,34.4c12.5,0,26.1-2.2,38.7-6v-57.9C621.6,216.9,606.6,203.3,578.3,202.6z M595,285.7
		c-1.6,0.4-8.5,1.1-11.8,1.1c-12.7,0-19.7-3.8-19.7-12.7s6.9-12.5,19.7-12.5c4.2,0,9.2,0.4,11.8,0.7V285.7z M702.3,180.3v24.4
		c-4.9-1.3-10.1-1.6-14.5-1.6c-30.6,0-51.4,20.6-51.4,53.4c0,33.5,20.3,52.1,52.1,52.1c14.5,0,28.8-2,41.6-6.3V157.7
		c-7.8,2.9-16.1,6.9-23,12.5C703.4,173.1,702.3,176,702.3,180.3z M702.3,284.4c-4.7,1.3-8,1.6-11.8,1.6c-18.3,0-25.5-12.1-25.5-29.5
		c0-19.4,7.2-31.3,25.2-31.3c5.4,0,8.7,0.7,12.1,1.6V284.4z M900.5,246.2l-11.2-4.7c-6.5-2.7-10.3-4.9-10.3-9.2
		c0-6.5,5.8-7.8,13.4-7.8c7.6,0,15.4,0.9,26.1,4.2c1.3-7.4,1.3-14.3,0-20.8c-6.7-3.6-19.2-5.4-30.2-5.4c-21.5,0-37.8,11.6-37.8,29
		c0,15.6,6.7,23.5,25.5,31.1l8.7,3.6c8.3,3.4,10.7,5.4,10.7,10.7c0,8-8,9.4-14.7,9.4c-11.2,0-19.7-2.2-30.4-6
		c-1.8,6.5-1.8,15,0,21.7c9.2,4.9,21.7,6.5,34.9,6.5c21.2,0,38.2-11.2,38.2-31.3C923.5,260.7,916.3,252.9,900.5,246.2z"/>
</g>
</svg>
