<?xml version="1.0" encoding="utf-8"?>
<!-- Generator: Adobe Illustrator 22.1.0, SVG Export Plug-In . SVG Version: 6.00 Build 0)  -->
<svg version="1.1" id="Layer_1" xmlns="http://www.w3.org/2000/svg" xmlns:xlink="http://www.w3.org/1999/xlink" x="0px" y="0px"
	 viewBox="0 0 416 94.4" style="enable-background:new 0 0 416 94.4;" xml:space="preserve">
<style type="text/css">
	.st0{fill:#EA1D25;}
</style>
<g>
	<path class="st0" d="M66,42.3c-0.2-2.4-0.8-4.9-2.1-7L52.9,16c-0.8-1.5-1.5-3.1-1.8-4.7l-0.5,0.8c-2.8,4.7-2.8,10.7,0,15.4L59.5,43
		c2.8,4.7,2.8,10.7,0,15.4L59,59.2c-0.3-1.6-1-3.2-1.8-4.7l-8.1-14.1l-5.2-9.1c-0.8-1.5-1.5-3.1-1.8-4.7l-0.5,0.8
		c-2.8,4.7-2.8,10.5,0,15.4l0,0l8.9,15.4c2.8,4.7,2.8,10.7,0,15.4L50,74.4c-0.3-1.6-1-3.2-1.8-4.7L37.1,50.4
		C35.7,47.8,35,44.9,35,42c-11.8,3.1-20.1,9.7-20.1,17.3c0,10.7,15.9,19.3,35.5,19.3S85.9,70,85.9,59.3C86.1,52.1,78,45.4,66,42.3z
		 M99.5,75.2c0.2-2.8,0.5-4.5,1.3-6.8c3.7,1.8,8.6,2.6,12.2,2.6c6.2,0,9.7-1.9,9.7-6c0-3.9-2.6-5.7-8.8-8.4l-3.4-1.3
		C104.2,52.5,100,49,100,42c0-7.6,5.4-12.5,16.1-12.5c4.4,0,8.4,0.6,12.2,1.9c-0.2,2.6-0.6,4.7-1.3,6.6c-3.6-1.3-7.9-1.9-11-1.9
		c-5.8,0-8.4,2.3-8.4,5.8c0,3.4,2.6,5.5,7.3,7.5l3.6,1.5c8.4,3.6,12,7.5,12,13.9c0,7.6-5.8,13-17.2,13
		C107.8,77.8,103.3,77,99.5,75.2z M166.2,43.3v33.4h-6.8l-0.3-4.1c-1.9,2.9-4.7,4.9-9.4,4.9c-8.8,0-14.8-6.5-14.8-17.7
		c0-11.7,6.3-18.5,18.6-18.5C158.4,41.5,162.4,42,166.2,43.3z M158.9,69.1V48.2c-1.5-0.3-3.2-0.3-5.4-0.3c-7.6,0-11.2,4.7-11.2,12.2
		c0,6.8,2.8,11.7,9.2,11.7C154.7,71.5,156.9,70.5,158.9,69.1z M203.8,54.3v22.4h-7.3V55.6c0-5.4-1.8-7.8-9.1-7.8
		c-1.8,0-3.7,0.2-5.8,0.5v28.4h-7.3V43.3c4.7-1.1,9.9-1.9,13.3-1.9C199.9,41.5,203.8,46.2,203.8,54.3z M224.2,71.3
		c2.1,0,4.2-0.3,5.7-1c-0.2,1.9-0.5,4.2-0.8,6.2c-1.9,0.8-4.2,1.1-6.2,1.1c-7.1,0-11.7-3.2-11.7-11.3V31.1c2.3-0.8,5-1.1,7.3-1.1
		v12.6h11.7c-0.2,2.3-0.3,4.4-0.6,6.3h-11v16.4C218.5,69.6,220.6,71.3,224.2,71.3z M263.6,43.3v33.4h-6.8l-0.3-4.1
		c-1.9,2.9-4.7,4.9-9.4,4.9c-8.8,0-14.8-6.5-14.8-17.7c0-11.7,6.3-18.5,18.6-18.5C255.8,41.5,259.7,42,263.6,43.3z M256.2,69.1V48.2
		c-1.5-0.3-3.2-0.3-5.4-0.3c-7.6,0-11.2,4.7-11.2,12.2c0,6.8,2.8,11.7,9.2,11.7C251.9,71.5,254.4,70.5,256.2,69.1z M301.2,54.3v22.4
		h-7.5V55.6c0-5.4-1.8-7.8-9.1-7.8c-1.8,0-3.7,0.2-5.8,0.5v28.4h-7.3V43.3c4.7-1.1,9.9-1.9,13.3-1.9
		C297.2,41.5,301.2,46.2,301.2,54.3z M338.4,30v46.7h-6.8l-0.3-4.2c-1.9,3.1-4.7,5-9.6,5c-8.8,0-14.8-6.5-14.8-17.7
		c0-11.7,6.3-18.5,18.6-18.5c1.9,0,3.7,0.2,5.5,0.5v-11C333.3,30.2,335.9,30,338.4,30z M331.1,69.1V48.5c-1.9-0.3-3.9-0.6-5.8-0.6
		c-7.3,0-10.7,4.5-10.7,12.2c0,6.8,2.8,11.7,9.2,11.7C326.7,71.5,329.1,70.5,331.1,69.1z M375.3,62.4h-23.5c1,6,4.4,8.8,11,8.8
		c4.1,0,8.1-0.8,11.7-2.6c-0.3,1.9-0.6,4.5-1.1,6.6c-3.4,1.5-6.8,2.1-10.9,2.1c-12.3,0-18.2-6.8-18.2-18.2c0-9.9,4.5-17.8,16.2-17.8
		c10.5,0,15.1,6.8,15.1,15.2C375.6,58.9,375.6,60.5,375.3,62.4z M351.8,56.3h16.5c0-5.5-2.9-8.8-7.9-8.8
		C355.1,47.7,352.3,50.6,351.8,56.3z M401.1,41.8c0,2.3-0.3,4.9-0.6,6.3c-1.8-0.2-3.4-0.3-5.5-0.3c-1.8,0-3.6,0.2-5.4,0.3v28.5h-7.3
		V43.3c3.1-1.1,8.4-1.9,12.5-1.9C396.9,41.5,399.5,41.5,401.1,41.8z"/>
</g>
</svg>
